<svg id="Warstwa_1" data-name="Warstwa 1" xmlns="http://www.w3.org/2000/svg" xmlns:xlink="http://www.w3.org/1999/xlink" viewBox="0 0 68.05 24"><defs><style>.cls-1{fill:none;}.cls-2{clip-path:url(#clip-path);}.cls-3{fill:#fab018;}.cls-4{fill:#231f20;}</style><clipPath id="clip-path" transform="translate(0 0)"><rect class="cls-1" width="68.06" height="24"/></clipPath></defs><title>logo</title><g class="cls-2"><path class="cls-3" d="M49,5L47,20.61A3,3,0,0,0,50,24H63.13a3,3,0,0,0,3-2.65L68,5.73a3,3,0,0,0-3-3.38H52A3,3,0,0,0,49,5" transform="translate(0 0)"/><path class="cls-4" d="M6.65,9.12H9.38a1.94,1.94,0,0,0,1.55-.83,4.25,4.25,0,0,0,.66-2.64,2.16,2.16,0,0,0-.4-1.4A1.51,1.51,0,0,0,10,3.76H7.31Zm3.9,12.07c-1.15,0-2.38-8.35-2.38-8.35h-2l-1,8.35H0L2.58,0H11.1a5.92,5.92,0,0,1,4.14,1.26,4.64,4.64,0,0,1,1.36,3.58,11.69,11.69,0,0,1-.32,2.85,7.62,7.62,0,0,1-.87,2.15,5.77,5.77,0,0,1-2.94,2.42l3,8.92H10.56Z" transform="translate(0 0)"/><path class="cls-4" d="M38.77,8.63s3.56-1.77,3.56,1.75v0.27a1.39,1.39,0,0,1,0,.27L41.08,21.19h4.76S47,11,47.1,10.18c1-8.32-7.18-4.47-8.32-1.55" transform="translate(0 0)"/></g><polygon class="cls-4" points="39.17 5.38 34.35 5.46 32.47 21.19 37.23 21.19 39.17 5.38"/><g class="cls-2"><path class="cls-4" d="M25.37,18s-3.57,1.77-3.57-1.75V16a1.39,1.39,0,0,1,0-.27L23.06,5.46H18.3S17.13,15.7,17,16.47c-1,8.32,7.18,4.47,8.33,1.55" transform="translate(0 0)"/></g><polygon class="cls-4" points="24.97 21.27 29.76 21.19 31.67 5.46 26.91 5.46 24.97 21.27"/><g class="cls-2"><path class="cls-4" d="M56.74,17.9a2.35,2.35,0,0,0,1.62-.57,2.68,2.68,0,0,0,.79-1.75l0.57-4.82a1.34,1.34,0,0,0,0-.26V10.25A1.66,1.66,0,0,0,57.8,8.44a2.25,2.25,0,0,0-2.41,2.32l-0.57,4.82a1.27,1.27,0,0,0,0,.26V16.1a1.66,1.66,0,0,0,2,1.81M50.48,12q0.86-6.88,7.74-6.88,6.22,0,6.22,5.45A12.1,12.1,0,0,1,64.37,12l-0.29,2.35a7.84,7.84,0,0,1-2.39,5.18,7.88,7.88,0,0,1-5.35,1.71q-6.23,0-6.22-5.45a13.13,13.13,0,0,1,.09-1.43Z" transform="translate(0 0)"/></g></svg>