<?xml version="1.0" encoding="utf-8"?>
<!-- Generator: Adobe Illustrator 16.0.0, SVG Export Plug-In . SVG Version: 6.00 Build 0)  -->
<!DOCTYPE svg PUBLIC "-//W3C//DTD SVG 1.1//EN" "http://www.w3.org/Graphics/SVG/1.1/DTD/svg11.dtd">
<svg version="1.1" id="Warstwa_1" xmlns="http://www.w3.org/2000/svg" xmlns:xlink="http://www.w3.org/1999/xlink" x="0px" y="0px"
	 width="612px" height="792px" viewBox="0 0 612 792" enable-background="new 0 0 612 792" xml:space="preserve">
<title>mouse</title>
<path fill="#FFFFFF" d="M328,0h-44C271.68,0,42,5.28,42,242v308c0,9.9,3.96,242,242,242h44c13.86,0,242-6.16,242-242V242
	C570,232.1,566.04,0,328,0z M526,550c0,191.62-177.76,198-198,198h-44C92.38,748,86,570.24,86,550V242C86,50.82,263.54,44,284,44h44
	c191.62,0,198,177.76,198,198V550z"/>
<circle fill="#FFFFFF" cx="306" cy="231" r="55"/>
</svg>
